<?xml version="1.0" encoding="UTF-8" standalone="no"?><svg xmlns="http://www.w3.org/2000/svg" xmlns:xlink="http://www.w3.org/1999/xlink" contentScriptType="application/ecmascript" contentStyleType="text/css" height="215px" preserveAspectRatio="none" style="width:153px;height:215px;background:#FFFFFF;" version="1.1" viewBox="0 0 153 215" width="153px" zoomAndPan="magnify"><defs><filter height="300%" id="f937j12txd76j" width="300%" x="-1" y="-1"><feGaussianBlur result="blurOut" stdDeviation="2.0"/><feColorMatrix in="blurOut" result="blurOut2" type="matrix" values="0 0 0 0 0 0 0 0 0 0 0 0 0 0 0 0 0 0 .4 0"/><feOffset dx="4.0" dy="4.0" in="blurOut2" result="blurOut3"/><feBlend in="SourceGraphic" in2="blurOut3" mode="normal"/></filter></defs><g><!--MD5=[aa7f586532e18719e6cefa70fc650583]
class Object--><rect fill="#FEFECE" filter="url(#f937j12txd76j)" height="60.8047" id="Object" style="stroke:#A80036;stroke-width:1.5;" width="72" x="37" y="7"/><ellipse cx="52" cy="23" fill="#ADD1B2" rx="11" ry="11" style="stroke:#A80036;stroke-width:1.0;"/><path d="M54.9688,28.6406 Q54.3906,28.9375 53.75,29.0781 Q53.1094,29.2344 52.4063,29.2344 Q49.9063,29.2344 48.5781,27.5938 Q47.2656,25.9375 47.2656,22.8125 Q47.2656,19.6875 48.5781,18.0313 Q49.9063,16.375 52.4063,16.375 Q53.1094,16.375 53.75,16.5313 Q54.4063,16.6875 54.9688,16.9844 L54.9688,19.7031 Q54.3438,19.125 53.75,18.8594 Q53.1563,18.5781 52.5313,18.5781 Q51.1875,18.5781 50.5,19.6563 Q49.8125,20.7188 49.8125,22.8125 Q49.8125,24.9063 50.5,25.9844 Q51.1875,27.0469 52.5313,27.0469 Q53.1563,27.0469 53.75,26.7813 Q54.3438,26.5 54.9688,25.9219 L54.9688,28.6406 Z " fill="#000000"/><text fill="#000000" font-family="sans-serif" font-size="12" lengthAdjust="spacing" textLength="40" x="66" y="27.1543">Object</text><line style="stroke:#A80036;stroke-width:1.5;" x1="38" x2="108" y1="39" y2="39"/><line style="stroke:#A80036;stroke-width:1.5;" x1="38" x2="108" y1="47" y2="47"/><text fill="#000000" font-family="sans-serif" font-size="11" lengthAdjust="spacing" textLength="46" x="43" y="61.2104">equals()</text><!--MD5=[ab8871ed637f40707b866ba6597734bc]
class ArrayList--><rect fill="#FEFECE" filter="url(#f937j12txd76j)" height="73.6094" id="ArrayList" style="stroke:#A80036;stroke-width:1.5;" width="132" x="7" y="128"/><ellipse cx="43.15" cy="144" fill="#ADD1B2" rx="11" ry="11" style="stroke:#A80036;stroke-width:1.0;"/><path d="M46.1188,149.6406 Q45.5406,149.9375 44.9,150.0781 Q44.2594,150.2344 43.5563,150.2344 Q41.0563,150.2344 39.7281,148.5938 Q38.4156,146.9375 38.4156,143.8125 Q38.4156,140.6875 39.7281,139.0313 Q41.0563,137.375 43.5563,137.375 Q44.2594,137.375 44.9,137.5313 Q45.5563,137.6875 46.1188,137.9844 L46.1188,140.7031 Q45.4938,140.125 44.9,139.8594 Q44.3063,139.5781 43.6813,139.5781 Q42.3375,139.5781 41.65,140.6563 Q40.9625,141.7188 40.9625,143.8125 Q40.9625,145.9063 41.65,146.9844 Q42.3375,148.0469 43.6813,148.0469 Q44.3063,148.0469 44.9,147.7813 Q45.4938,147.5 46.1188,146.9219 L46.1188,149.6406 Z " fill="#000000"/><text fill="#000000" font-family="sans-serif" font-size="12" lengthAdjust="spacing" textLength="53" x="61.85" y="148.1543">ArrayList</text><line style="stroke:#A80036;stroke-width:1.5;" x1="8" x2="138" y1="160" y2="160"/><text fill="#000000" font-family="sans-serif" font-size="11" lengthAdjust="spacing" textLength="120" x="13" y="174.2104">Object[] elementData</text><line style="stroke:#A80036;stroke-width:1.5;" x1="8" x2="138" y1="180.8047" y2="180.8047"/><text fill="#000000" font-family="sans-serif" font-size="11" lengthAdjust="spacing" textLength="30" x="13" y="195.0151">size()</text><!--MD5=[78ed3d54c6ad96fb6434a4e45aa4b5f0]
reverse link Object to ArrayList--><path codeLine="1" d="M73,88.5 C73,101.62 73,115.51 73,127.76 " fill="none" id="Object-backto-ArrayList" style="stroke:#A80036;stroke-width:1.0;"/><polygon fill="none" points="66,88.24,73,68.24,80,88.24,66,88.24" style="stroke:#A80036;stroke-width:1.0;"/><!--MD5=[1554726d9b803b77d7349f8399ae50a0]
@startuml diagramName
Object <|- - ArrayList

Object : equals()
ArrayList : Object[] elementData
ArrayList : size()
@enduml

PlantUML version 1.2022.0(Tue Jan 11 17:16:42 CET 2022)
(GPL source distribution)
Java Runtime: OpenJDK Runtime Environment
JVM: OpenJDK 64-Bit Server VM
Default Encoding: UTF-8
Language: en
Country: US
--></g></svg>